<svg width="77" height="24" viewBox="0 0 77 24" fill="none" xmlns="http://www.w3.org/2000/svg">
<g clip-path="url(#clip0_102_306)">
<path d="M21.75 11.25V12C21.75 13.2833 21.4967 14.554 21.0045 15.7392C20.5124 16.9244 19.7911 18.0008 18.882 18.9066C17.973 19.8124 16.8941 20.5299 15.7071 21.0178C14.5202 21.5058 13.2486 21.7546 11.9653 21.75C6.90281 21.7322 2.77781 17.8069 2.29781 12.8644C2.29261 12.8 2.30412 12.7354 2.33124 12.6768C2.35836 12.6181 2.40016 12.5675 2.45259 12.5298C2.50503 12.4921 2.56632 12.4685 2.63052 12.4614C2.69473 12.4544 2.75967 12.464 2.81906 12.4894C3.49364 12.7726 4.24207 12.8285 4.95124 12.6487C5.66042 12.4689 6.29181 12.0632 6.75 11.4928C7.05022 11.8662 7.42664 12.1712 7.85413 12.3875C8.28163 12.6037 8.75034 12.7263 9.22898 12.747C9.70762 12.7677 10.1852 12.686 10.6297 12.5074C11.0743 12.3288 11.4756 12.0574 11.8069 11.7113C12.1105 12.2045 12.5233 12.6215 13.0134 12.93C12.465 13.3496 12.0206 13.89 11.7148 14.5091C11.409 15.1282 11.2499 15.8095 11.25 16.5C11.2496 16.604 11.2709 16.707 11.3125 16.8023C11.354 16.8977 11.415 16.9833 11.4914 17.0539C11.5678 17.1244 11.6581 17.1783 11.7565 17.212C11.8548 17.2458 11.9592 17.2587 12.0628 17.25C12.2531 17.2295 12.429 17.1388 12.5561 16.9956C12.6831 16.8525 12.7523 16.6671 12.75 16.4757C12.7564 15.6842 13.0753 14.9274 13.6373 14.3701C14.1992 13.8127 14.9586 13.5 15.75 13.5C15.8528 13.5003 15.9546 13.4793 16.049 13.4386C16.1434 13.3978 16.2284 13.3381 16.2987 13.2631C16.369 13.1881 16.4232 13.0994 16.4578 13.0026C16.4925 12.9058 16.5068 12.8029 16.5 12.7003C16.4832 12.5076 16.3942 12.3283 16.2507 12.1984C16.1073 12.0685 15.9201 11.9976 15.7266 12H15C14.4033 12 13.831 11.763 13.409 11.341C12.9871 10.9191 12.75 10.3468 12.75 9.75003V8.25003H18.75C19.5456 8.25003 20.3087 8.5661 20.8713 9.12871C21.4339 9.69132 21.75 10.4544 21.75 11.25ZM4.19344 11.25C5.20969 11.2125 6 10.3472 6 9.33003V7.17378C6 6.15284 5.20969 5.28753 4.19344 5.25003C3.94151 5.24083 3.69032 5.28252 3.45487 5.37262C3.21943 5.46272 3.00457 5.59937 2.82315 5.77441C2.64172 5.94944 2.49746 6.15927 2.39898 6.39133C2.3005 6.62339 2.24983 6.87293 2.25 7.12503V9.37503C2.24983 9.62712 2.3005 9.87666 2.39898 10.1087C2.49746 10.3408 2.64172 10.5506 2.82315 10.7256C3.00457 10.9007 3.21943 11.0373 3.45487 11.1274C3.69032 11.2175 3.94151 11.2592 4.19344 11.25ZM9.44344 11.25C10.4597 11.2135 11.25 10.3482 11.25 9.33097V4.92472C11.25 3.90753 10.4597 3.04222 9.44344 3.00565C9.19198 2.99647 8.94125 3.03799 8.70618 3.12774C8.47111 3.2175 8.25651 3.35365 8.07517 3.52808C7.89382 3.70251 7.74944 3.91167 7.65063 4.14307C7.55181 4.37448 7.50059 4.62341 7.5 4.87503V9.37503C7.49983 9.62712 7.5505 9.87666 7.64898 10.1087C7.74746 10.3408 7.89172 10.5506 8.07315 10.7256C8.25457 10.9007 8.46943 11.0373 8.70487 11.1274C8.94032 11.2175 9.19151 11.2592 9.44344 11.25ZM16.5 4.87503C16.5002 4.62293 16.4495 4.37339 16.351 4.14133C16.2525 3.90927 16.1083 3.69944 15.9269 3.52441C15.7454 3.34937 15.5306 3.21272 15.2951 3.12262C15.0597 3.03252 14.8085 2.99083 14.5566 3.00003C13.5403 3.03753 12.75 3.90284 12.75 4.92003V6.75003H16.125C16.2245 6.75003 16.3198 6.71052 16.3902 6.64019C16.4605 6.56987 16.5 6.47448 16.5 6.37503V4.87503Z" fill="url(#paint0_linear_102_306)"/>
<path d="M31.152 17H28.752L28.752 6.28L33.68 6.28C36.24 6.28 37.664 7.464 37.664 9.544C37.664 11.288 36.8 12.328 34.96 12.488V12.648C35.888 12.936 36.336 13.496 36.752 14.312L38.112 17H35.312L34.048 14.52C33.568 13.592 33.248 13.192 32.112 13.192H31.152L31.152 17ZM31.152 8.44V11.208L33.792 11.208C34.912 11.208 35.28 10.872 35.28 9.816C35.28 8.792 34.912 8.44 33.792 8.44H31.152ZM41.1989 17H38.7989V6.28L43.7269 6.28C46.0309 6.28 47.6789 7.672 47.6789 10.056C47.6789 12.456 46.0309 13.816 43.7269 13.816H41.1989V17ZM43.8229 8.44L41.1989 8.44V11.672H43.8229C44.9269 11.672 45.2949 11.336 45.2949 10.056C45.2949 8.76 44.9269 8.44 43.8229 8.44ZM53.3131 17.16C50.1611 17.16 48.7051 15.88 48.7051 13.512V13.304H51.0571V13.464C51.0571 14.648 51.4891 14.984 53.4251 14.984C54.7851 14.984 55.1211 14.712 55.1211 13.992C55.1211 13.272 54.9611 13.016 53.4571 12.76L51.5691 12.424C49.5211 12.072 48.6571 11.032 48.6571 9.368C48.6571 7.736 49.8571 6.12 52.9291 6.12C55.9851 6.12 57.2651 7.704 57.2651 9.832V9.96H54.8971V9.784C54.8971 8.664 54.4331 8.296 52.8491 8.296C51.4731 8.296 51.0411 8.6 51.0411 9.272C51.0411 9.96 51.3291 10.12 52.5771 10.36L54.4811 10.728C56.7371 11.16 57.5051 12.344 57.5051 13.912C57.5051 15.624 56.3531 17.16 53.3131 17.16ZM66.4068 17H58.4708V6.28H60.8708V14.84H66.4068V17ZM71.485 17.16C68.333 17.16 66.877 15.88 66.877 13.512V13.304H69.229V13.464C69.229 14.648 69.661 14.984 71.597 14.984C72.957 14.984 73.293 14.712 73.293 13.992C73.293 13.272 73.133 13.016 71.629 12.76L69.741 12.424C67.693 12.072 66.829 11.032 66.829 9.368C66.829 7.736 68.029 6.12 71.101 6.12C74.157 6.12 75.437 7.704 75.437 9.832V9.96H73.069V9.784C73.069 8.664 72.605 8.296 71.021 8.296C69.645 8.296 69.213 8.6 69.213 9.272C69.213 9.96 69.501 10.12 70.749 10.36L72.653 10.728C74.909 11.16 75.677 12.344 75.677 13.912C75.677 15.624 74.525 17.16 71.485 17.16Z" fill="white"/>
</g>
<defs>
<linearGradient id="paint0_linear_102_306" x1="12" y1="2.99878" x2="12" y2="21.7501" gradientUnits="userSpaceOnUse">
<stop stop-color="#F66447"/>
<stop offset="1" stop-color="#FECE34"/>
</linearGradient>
<clipPath id="clip0_102_306">
<rect width="77" height="24" fill="white"/>
</clipPath>
</defs>
</svg>
